<svg id="SvgjsSvg1199" width="1218.09375" height="450.1570362672353" xmlns="http://www.w3.org/2000/svg" version="1.1" xmlns:xlink="http://www.w3.org/1999/xlink" xmlns:svgjs="http://svgjs.com/svgjs"><defs id="SvgjsDefs1200"><pattern patternUnits="userSpaceOnUse" id="pattern_mark_0" width="300" height="300"><text x="150" y="100" fill="rgba(229,229,229,0.8)" font-size="18" transform="rotate(-45, 150, 150)" style="dominant-baseline: middle; text-anchor: middle;"></text></pattern><pattern patternUnits="userSpaceOnUse" id="pattern_mark_1" width="300" height="300"><text x="150" y="200" fill="rgba(229,229,229,0.8)" font-size="18" transform="rotate(-45, 150, 150)" style="dominant-baseline: middle; text-anchor: middle;"></text></pattern><marker id="SvgjsMarker1258" markerWidth="13" markerHeight="9" refX="9.5" refY="4.5" viewBox="0 0 13 9" orient="auto" markerUnits="userSpaceOnUse" stroke-dasharray="0,0"><path id="SvgjsPath1259" d="M0,0 L13,4.5 L0,9 L0,0" fill="#323232" stroke="#323232" stroke-width="1"></path></marker><marker id="SvgjsMarker1262" markerWidth="13" markerHeight="9" refX="9.5" refY="4.5" viewBox="0 0 13 9" orient="auto" markerUnits="userSpaceOnUse" stroke-dasharray="0,0"><path id="SvgjsPath1263" d="M0,0 L13,4.5 L0,9 L0,0" fill="#323232" stroke="#323232" stroke-width="1"></path></marker><marker id="SvgjsMarker1288" markerWidth="13" markerHeight="9" refX="9.5" refY="4.5" viewBox="0 0 13 9" orient="auto" markerUnits="userSpaceOnUse" stroke-dasharray="0,0"><path id="SvgjsPath1289" d="M0,0 L13,4.5 L0,9 L0,0" fill="#323232" stroke="#323232" stroke-width="1"></path></marker><marker id="SvgjsMarker1292" markerWidth="13" markerHeight="9" refX="9.5" refY="4.5" viewBox="0 0 13 9" orient="auto" markerUnits="userSpaceOnUse" stroke-dasharray="0,0"><path id="SvgjsPath1293" d="M0,0 L13,4.5 L0,9 L0,0" fill="#323232" stroke="#323232" stroke-width="1"></path></marker><marker id="SvgjsMarker1308" markerWidth="13" markerHeight="9" refX="9.5" refY="4.5" viewBox="0 0 13 9" orient="auto" markerUnits="userSpaceOnUse" stroke-dasharray="0,0"><path id="SvgjsPath1309" d="M0,0 L13,4.5 L0,9 L0,0" fill="#323232" stroke="#323232" stroke-width="1"></path></marker><marker id="SvgjsMarker1312" markerWidth="13" markerHeight="9" refX="9.5" refY="4.5" viewBox="0 0 13 9" orient="auto" markerUnits="userSpaceOnUse" stroke-dasharray="0,0"><path id="SvgjsPath1313" d="M0,0 L13,4.5 L0,9 L0,0" fill="#323232" stroke="#323232" stroke-width="1"></path></marker><marker id="SvgjsMarker1316" markerWidth="13" markerHeight="9" refX="9.5" refY="4.5" viewBox="0 0 13 9" orient="auto" markerUnits="userSpaceOnUse" stroke-dasharray="0,0"><path id="SvgjsPath1317" d="M0,0 L13,4.5 L0,9 L0,0" fill="#323232" stroke="#323232" stroke-width="1"></path></marker><marker id="SvgjsMarker1320" markerWidth="13" markerHeight="9" refX="9.5" refY="4.5" viewBox="0 0 13 9" orient="auto" markerUnits="userSpaceOnUse" stroke-dasharray="0,0"><path id="SvgjsPath1321" d="M0,0 L13,4.5 L0,9 L0,0" fill="#323232" stroke="#323232" stroke-width="1"></path></marker><marker id="SvgjsMarker1324" markerWidth="13" markerHeight="9" refX="9.5" refY="4.5" viewBox="0 0 13 9" orient="auto" markerUnits="userSpaceOnUse" stroke-dasharray="0,0"><path id="SvgjsPath1325" d="M0,0 L13,4.5 L0,9 L0,0" fill="#323232" stroke="#323232" stroke-width="1"></path></marker><marker id="SvgjsMarker1334" markerWidth="13" markerHeight="9" refX="9.5" refY="4.5" viewBox="0 0 13 9" orient="auto" markerUnits="userSpaceOnUse" stroke-dasharray="0,0"><path id="SvgjsPath1335" d="M0,0 L13,4.5 L0,9 L0,0" fill="#323232" stroke="#323232" stroke-width="1"></path></marker><marker id="SvgjsMarker1338" markerWidth="13" markerHeight="9" refX="9.5" refY="4.5" viewBox="0 0 13 9" orient="auto" markerUnits="userSpaceOnUse" stroke-dasharray="0,0"><path id="SvgjsPath1339" d="M0,0 L13,4.5 L0,9 L0,0" fill="#323232" stroke="#323232" stroke-width="1"></path></marker><marker id="SvgjsMarker1342" markerWidth="13" markerHeight="9" refX="9.5" refY="4.5" viewBox="0 0 13 9" orient="auto" markerUnits="userSpaceOnUse" stroke-dasharray="0,0"><path id="SvgjsPath1343" d="M0,0 L13,4.5 L0,9 L0,0" fill="#323232" stroke="#323232" stroke-width="1"></path></marker></defs><rect id="svgbackgroundid" width="1218.09375" height="450.1570362672353" fill="transparent"></rect><rect id="SvgjsRect1202" width="1218.09375" height="450.1570362672353" fill="url(#pattern_mark_0)"></rect><rect id="SvgjsRect1203" width="1218.09375" height="450.1570362672353" fill="url(#pattern_mark_1)"></rect><g id="SvgjsG1204" transform="translate(25,199.0000000000001)"><path id="SvgjsPath1205" d="M 0 4Q 0 0 4 0L 63 0Q 67 0 67 4L 67 41Q 67 45 63 45L 4 45Q 0 45 0 41Z" stroke="rgba(33,41,48,1)" stroke-width="1.5" fill-opacity="1" fill="#f4c18f"></path><g id="SvgjsG1206"><text id="SvgjsText1207" font-family="&quot;Microsoft YaHei&quot;, 微软雅黑, Arial" text-anchor="middle" font-size="13px" width="47px" fill="#323232" font-weight="400" align="middle" lineHeight="125%" anchor="middle" family="&quot;Microsoft YaHei&quot;, 微软雅黑, Arial" size="13px" weight="400" font-style="" opacity="1" y="11.875" transform="rotate(0)"><tspan id="SvgjsTspan1208" dy="16.25" x="33.5"><tspan id="SvgjsTspan1209" style="">SOS</tspan></tspan></text></g></g><g id="SvgjsG1210" transform="translate(118,199.0000000000001)"><path id="SvgjsPath1211" d="M 0 4Q 0 0 4 0L 91 0Q 95 0 95 4L 95 41Q 95 45 91 45L 4 45Q 0 45 0 41Z" stroke="rgba(33,41,48,1)" stroke-width="1.5" fill-opacity="1" fill="#f4c18f"></path><g id="SvgjsG1212"><text id="SvgjsText1213" font-family="&quot;Microsoft YaHei&quot;, 微软雅黑, Arial" text-anchor="middle" font-size="13px" width="75px" fill="#323232" font-weight="400" align="middle" lineHeight="125%" anchor="middle" family="&quot;Microsoft YaHei&quot;, 微软雅黑, Arial" size="13px" weight="400" font-style="" opacity="1" y="11.875" transform="rotate(0)"><tspan id="SvgjsTspan1214" dy="16.25" x="47.5"><tspan id="SvgjsTspan1215" style="">LANGUAGE</tspan></tspan></text></g></g><g id="SvgjsG1216" transform="translate(239,199.0000000000001)"><path id="SvgjsPath1217" d="M 0 4Q 0 0 4 0L 73 0Q 77 0 77 4L 77 41Q 77 45 73 45L 4 45Q 0 45 0 41Z" stroke="rgba(33,41,48,1)" stroke-width="1.5" fill-opacity="1" fill="#f4c18f"></path><g id="SvgjsG1218"><text id="SvgjsText1219" font-family="&quot;Microsoft YaHei&quot;, 微软雅黑, Arial" text-anchor="middle" font-size="13px" width="57px" fill="#323232" font-weight="400" align="middle" lineHeight="125%" anchor="middle" family="&quot;Microsoft YaHei&quot;, 微软雅黑, Arial" size="13px" weight="400" font-style="" opacity="1" y="11.875" transform="rotate(0)"><tspan id="SvgjsTspan1220" dy="16.25" x="38.5"><tspan id="SvgjsTspan1221" style="">REGION</tspan></tspan></text></g></g><g id="SvgjsG1222" transform="translate(342,199.0000000000001)"><path id="SvgjsPath1223" d="M 0 4Q 0 0 4 0L 100 0Q 104 0 104 4L 104 41Q 104 45 100 45L 4 45Q 0 45 0 41Z" stroke="rgba(33,41,48,1)" stroke-width="1.5" fill-opacity="1" fill="#f4c18f"></path><g id="SvgjsG1224"><text id="SvgjsText1225" font-family="&quot;Microsoft YaHei&quot;, 微软雅黑, Arial" text-anchor="middle" font-size="13px" width="84px" fill="#323232" font-weight="400" align="middle" lineHeight="125%" anchor="middle" family="&quot;Microsoft YaHei&quot;, 微软雅黑, Arial" size="13px" weight="400" font-style="" opacity="1" y="11.875" transform="rotate(0)"><tspan id="SvgjsTspan1226" dy="16.25" x="52"><tspan id="SvgjsTspan1227" style="">TRANSCRIBE</tspan></tspan></text></g></g><g id="SvgjsG1228" transform="translate(479,158.5000000000001)"><path id="SvgjsPath1229" d="M 0 4Q 0 0 4 0L 61 0Q 65 0 65 4L 65 41Q 65 45 61 45L 4 45Q 0 45 0 41Z" stroke="rgba(33,41,48,1)" stroke-width="1.5" fill-opacity="1" fill="#b0e38f"></path><g id="SvgjsG1230"><text id="SvgjsText1231" font-family="&quot;Microsoft YaHei&quot;, 微软雅黑, Arial" text-anchor="middle" font-size="13px" width="45px" fill="#323232" font-weight="400" align="middle" lineHeight="125%" anchor="middle" family="&quot;Microsoft YaHei&quot;, 微软雅黑, Arial" size="13px" weight="400" font-style="" opacity="1" y="3.375" transform="rotate(0)"><tspan id="SvgjsTspan1232" dy="16.25" x="32.5"><tspan id="SvgjsTspan1233" style="">begin</tspan></tspan><tspan id="SvgjsTspan1234" dy="16.25" x="32.5"><tspan id="SvgjsTspan1235" style="">time</tspan></tspan></text></g></g><g id="SvgjsG1236" transform="translate(570,158.5000000000001)"><path id="SvgjsPath1237" d="M 0 4Q 0 0 4 0L 91 0Q 95 0 95 4L 95 41Q 95 45 91 45L 4 45Q 0 45 0 41Z" stroke="rgba(33,41,48,1)" stroke-width="1.5" fill-opacity="1" fill="#cae6ff"></path><g id="SvgjsG1238"><text id="SvgjsText1239" font-family="&quot;Microsoft YaHei&quot;, 微软雅黑, Arial" text-anchor="middle" font-size="13px" width="75px" fill="#323232" font-weight="400" align="middle" lineHeight="125%" anchor="middle" family="&quot;Microsoft YaHei&quot;, 微软雅黑, Arial" size="13px" weight="400" font-style="" opacity="1" y="11.875" transform="rotate(0)"><tspan id="SvgjsTspan1240" dy="16.25" x="47.5"><tspan id="SvgjsTspan1241" style="">text tokens</tspan></tspan></text></g></g><g id="SvgjsG1242" transform="translate(693.90625,158.5000000000001)"><path id="SvgjsPath1243" d="M 0 4Q 0 0 4 0L 61 0Q 65 0 65 4L 65 41Q 65 45 61 45L 4 45Q 0 45 0 41Z" stroke="rgba(33,41,48,1)" stroke-width="1.5" fill-opacity="1" fill="#b0e38e"></path><g id="SvgjsG1244"><text id="SvgjsText1245" font-family="&quot;Microsoft YaHei&quot;, 微软雅黑, Arial" text-anchor="middle" font-size="13px" width="45px" fill="#323232" font-weight="400" align="middle" lineHeight="125%" anchor="middle" family="&quot;Microsoft YaHei&quot;, 微软雅黑, Arial" size="13px" weight="400" font-style="" opacity="1" y="3.375" transform="rotate(0)"><tspan id="SvgjsTspan1246" dy="16.25" x="32.5"><tspan id="SvgjsTspan1247" style="">end </tspan></tspan><tspan id="SvgjsTspan1248" dy="16.25" x="32.5"><tspan id="SvgjsTspan1249" style="">time</tspan></tspan></text></g></g><g id="SvgjsG1250" transform="translate(768.765625,153.5000000000001)"><path id="SvgjsPath1251" d="M 0 0L 34.375 0L 34.375 45L 0 45Z" stroke="none" fill="none"></path><g id="SvgjsG1252"><text id="SvgjsText1253" font-family="&quot;Microsoft YaHei&quot;, 微软雅黑, Arial" text-anchor="middle" font-size="15px" width="35px" fill="#323232" font-weight="700" align="middle" lineHeight="125%" anchor="middle" family="&quot;Microsoft YaHei&quot;, 微软雅黑, Arial" size="15px" weight="700" font-style="" opacity="1" y="10.125" transform="rotate(0)"><tspan id="SvgjsTspan1254" dy="18.75" x="17.5"><tspan id="SvgjsTspan1255" style="">. . .</tspan></tspan></text></g></g><g id="SvgjsG1256"><path id="SvgjsPath1257" d="M544.75 181.0000000000001L557 181.0000000000001L557 181.0000000000001L567.3 181.0000000000001" stroke="#323232" stroke-width="1.5" fill="none" marker-end="url(#SvgjsMarker1258)"></path></g><g id="SvgjsG1260"><path id="SvgjsPath1261" d="M665.75 181.0000000000001L679.453125 181.0000000000001L679.453125 181.0000000000001L691.20625 181.0000000000001" stroke="#323232" stroke-width="1.5" fill="none" marker-end="url(#SvgjsMarker1262)"></path></g><g id="SvgjsG1264" transform="translate(813,158.5000000000001)"><path id="SvgjsPath1265" d="M 0 4Q 0 0 4 0L 61 0Q 65 0 65 4L 65 41Q 65 45 61 45L 4 45Q 0 45 0 41Z" stroke="rgba(33,41,48,1)" stroke-width="1.5" fill-opacity="1" fill="#b0e38e"></path><g id="SvgjsG1266"><text id="SvgjsText1267" font-family="&quot;Microsoft YaHei&quot;, 微软雅黑, Arial" text-anchor="middle" font-size="13px" width="45px" fill="#323232" font-weight="400" align="middle" lineHeight="125%" anchor="middle" family="&quot;Microsoft YaHei&quot;, 微软雅黑, Arial" size="13px" weight="400" font-style="" opacity="1" y="3.375" transform="rotate(0)"><tspan id="SvgjsTspan1268" dy="16.25" x="32.5"><tspan id="SvgjsTspan1269" style="">begin</tspan></tspan><tspan id="SvgjsTspan1270" dy="16.25" x="32.5"><tspan id="SvgjsTspan1271" style="">time</tspan></tspan></text></g></g><g id="SvgjsG1272" transform="translate(904,158.5000000000001)"><path id="SvgjsPath1273" d="M 0 4Q 0 0 4 0L 91 0Q 95 0 95 4L 95 41Q 95 45 91 45L 4 45Q 0 45 0 41Z" stroke="rgba(33,41,48,1)" stroke-width="1.5" fill-opacity="1" fill="#cae6ff"></path><g id="SvgjsG1274"><text id="SvgjsText1275" font-family="&quot;Microsoft YaHei&quot;, 微软雅黑, Arial" text-anchor="middle" font-size="13px" width="75px" fill="#323232" font-weight="400" align="middle" lineHeight="125%" anchor="middle" family="&quot;Microsoft YaHei&quot;, 微软雅黑, Arial" size="13px" weight="400" font-style="" opacity="1" y="11.875" transform="rotate(0)"><tspan id="SvgjsTspan1276" dy="16.25" x="47.5"><tspan id="SvgjsTspan1277" style="">text tokens</tspan></tspan></text></g></g><g id="SvgjsG1278" transform="translate(1027.90625,158.5000000000001)"><path id="SvgjsPath1279" d="M 0 4Q 0 0 4 0L 61 0Q 65 0 65 4L 65 41Q 65 45 61 45L 4 45Q 0 45 0 41Z" stroke="rgba(33,41,48,1)" stroke-width="1.5" fill-opacity="1" fill="#b0e38e"></path><g id="SvgjsG1280"><text id="SvgjsText1281" font-family="&quot;Microsoft YaHei&quot;, 微软雅黑, Arial" text-anchor="middle" font-size="13px" width="45px" fill="#323232" font-weight="400" align="middle" lineHeight="125%" anchor="middle" family="&quot;Microsoft YaHei&quot;, 微软雅黑, Arial" size="13px" weight="400" font-style="" opacity="1" y="3.375" transform="rotate(0)"><tspan id="SvgjsTspan1282" dy="16.25" x="32.5"><tspan id="SvgjsTspan1283" style="">end </tspan></tspan><tspan id="SvgjsTspan1284" dy="16.25" x="32.5"><tspan id="SvgjsTspan1285" style="">time</tspan></tspan></text></g></g><g id="SvgjsG1286"><path id="SvgjsPath1287" d="M878.75 181.0000000000001L891 181.0000000000001L891 181.0000000000001L901.3 181.0000000000001" stroke="#323232" stroke-width="1.5" fill="none" marker-end="url(#SvgjsMarker1288)"></path></g><g id="SvgjsG1290"><path id="SvgjsPath1291" d="M999.75 181.0000000000001L1013.453125 181.0000000000001L1013.453125 181.0000000000001L1025.20625 181.0000000000001" stroke="#323232" stroke-width="1.5" fill="none" marker-end="url(#SvgjsMarker1292)"></path></g><g id="SvgjsG1294" transform="translate(479,244.5000000000001)"><path id="SvgjsPath1295" d="M 0 4Q 0 0 4 0L 127 0Q 131 0 131 4L 131 41Q 131 45 127 45L 4 45Q 0 45 0 41Z" stroke="rgba(33,41,48,1)" stroke-width="1.5" fill-opacity="1" fill="#f4c18e"></path><g id="SvgjsG1296"><text id="SvgjsText1297" font-family="&quot;Microsoft YaHei&quot;, 微软雅黑, Arial" text-anchor="middle" font-size="13px" width="111px" fill="#323232" font-weight="400" align="middle" lineHeight="125%" anchor="middle" family="&quot;Microsoft YaHei&quot;, 微软雅黑, Arial" size="13px" weight="400" font-style="" opacity="1" y="11.875" transform="rotate(0)"><tspan id="SvgjsTspan1298" dy="16.25" x="65.5"><tspan id="SvgjsTspan1299" style="">NO TIMESTAMPS</tspan></tspan></text></g></g><g id="SvgjsG1300" transform="translate(636,244.5000000000001)"><path id="SvgjsPath1301" d="M 0 4Q 0 0 4 0L 452.906 0Q 456.906 0 456.906 4L 456.906 41Q 456.906 45 452.906 45L 4 45Q 0 45 0 41Z" stroke="rgba(33,41,48,1)" stroke-width="1.5" fill-opacity="1" fill="#cae6ff"></path><g id="SvgjsG1302"><text id="SvgjsText1303" font-family="&quot;Microsoft YaHei&quot;, 微软雅黑, Arial" text-anchor="middle" font-size="13px" width="437px" fill="#323232" font-weight="400" align="middle" lineHeight="125%" anchor="middle" family="&quot;Microsoft YaHei&quot;, 微软雅黑, Arial" size="13px" weight="400" font-style="" opacity="1" y="11.875" transform="rotate(0)"><tspan id="SvgjsTspan1304" dy="16.25" x="228.5"><tspan id="SvgjsTspan1305" style="">text tokens</tspan></tspan></text></g></g><g id="SvgjsG1306"><path id="SvgjsPath1307" d="M92.75 221.5000000000001L105 221.5000000000001L105 221.5000000000001L115.30000000000001 221.5000000000001" stroke="#323232" stroke-width="1.5" fill="none" marker-end="url(#SvgjsMarker1308)"></path></g><g id="SvgjsG1310"><path id="SvgjsPath1311" d="M213.75 221.5000000000001L226 221.5000000000001L226 221.5000000000001L236.29999999999995 221.5000000000001" stroke="#323232" stroke-width="1.5" fill="none" marker-end="url(#SvgjsMarker1312)"></path></g><g id="SvgjsG1314"><path id="SvgjsPath1315" d="M316.75 221.5000000000001L329 221.5000000000001L329 221.5000000000001L339.29999999999995 221.5000000000001" stroke="#323232" stroke-width="1.5" fill="none" marker-end="url(#SvgjsMarker1316)"></path></g><g id="SvgjsG1318"><path id="SvgjsPath1319" d="M446.4737547133717 220.91857376086216L477.294483031862 183.0931344608968" stroke="#323232" stroke-width="1.5" fill="none" marker-end="url(#SvgjsMarker1320)"></path></g><g id="SvgjsG1322"><path id="SvgjsPath1323" d="M446.44033499948 222.1071285598892L477.4147940018721 264.8143371843995" stroke="#323232" stroke-width="1.5" fill="none" marker-end="url(#SvgjsMarker1324)"></path></g><g id="SvgjsG1326" transform="translate(1126.09375,199.0000000000001)"><path id="SvgjsPath1327" d="M 0 4Q 0 0 4 0L 63 0Q 67 0 67 4L 67 41Q 67 45 63 45L 4 45Q 0 45 0 41Z" stroke="rgba(33,41,48,1)" stroke-width="1.5" fill-opacity="1" fill="#f1ac6a"></path><g id="SvgjsG1328"><text id="SvgjsText1329" font-family="&quot;Microsoft YaHei&quot;, 微软雅黑, Arial" text-anchor="middle" font-size="13px" width="47px" fill="#323232" font-weight="400" align="middle" lineHeight="125%" anchor="middle" family="&quot;Microsoft YaHei&quot;, 微软雅黑, Arial" size="13px" weight="400" font-style="" opacity="1" y="11.875" transform="rotate(0)"><tspan id="SvgjsTspan1330" dy="16.25" x="33.5"><tspan id="SvgjsTspan1331" style="">EOS</tspan></tspan></text></g></g><g id="SvgjsG1332"><path id="SvgjsPath1333" d="M1093.3816169582028 181.58010883034927L1124.38242895047 219.41160821074322" stroke="#323232" stroke-width="1.5" fill="none" marker-end="url(#SvgjsMarker1334)"></path></g><g id="SvgjsG1336"><path id="SvgjsPath1337" d="M1092.3696293426085 266.40031354346786L1124.4722460826692 223.65887124351627" stroke="#323232" stroke-width="1.5" fill="none" marker-end="url(#SvgjsMarker1338)"></path></g><g id="SvgjsG1340"><path id="SvgjsPath1341" d="M610.75 267.0000000000001L633.3 267.0000000000001" stroke="#323232" stroke-width="1.5" fill="none" marker-end="url(#SvgjsMarker1342)"></path></g><g id="SvgjsG1344" transform="translate(25,316.0000000000001)"><path id="SvgjsPath1345" d="M 0 4Q 0 0 4 0L 63 0Q 67 0 67 4L 67 41Q 67 45 63 45L 4 45Q 0 45 0 41Z" stroke="rgba(33,41,48,1)" stroke-width="1.5" fill-opacity="1" fill="#f4c18f"></path><g id="SvgjsG1346"><text id="SvgjsText1347" font-family="&quot;Microsoft YaHei&quot;, 微软雅黑, Arial" text-anchor="middle" font-size="13px" width="47px" fill="#323232" font-weight="400" align="middle" lineHeight="125%" anchor="middle" family="&quot;Microsoft YaHei&quot;, 微软雅黑, Arial" size="13px" weight="400" font-style="" opacity="1" y="3.375" transform="rotate(0)"><tspan id="SvgjsTspan1348" dy="16.25" x="33.5"><tspan id="SvgjsTspan1349" style="">special</tspan></tspan><tspan id="SvgjsTspan1350" dy="16.25" x="33.5"><tspan id="SvgjsTspan1351" style="">tokens</tspan></tspan></text></g></g><g id="SvgjsG1352" transform="translate(110,316.0000000000001)"><path id="SvgjsPath1353" d="M 0 4Q 0 0 4 0L 83 0Q 87 0 87 4L 87 41Q 87 45 83 45L 4 45Q 0 45 0 41Z" stroke="rgba(33,41,48,1)" stroke-width="1.5" fill-opacity="1" fill="#b0e38f"></path><g id="SvgjsG1354"><text id="SvgjsText1355" font-family="&quot;Microsoft YaHei&quot;, 微软雅黑, Arial" text-anchor="middle" font-size="13px" width="67px" fill="#323232" font-weight="400" align="middle" lineHeight="125%" anchor="middle" family="&quot;Microsoft YaHei&quot;, 微软雅黑, Arial" size="13px" weight="400" font-style="" opacity="1" y="3.375" transform="rotate(0)"><tspan id="SvgjsTspan1356" dy="16.25" x="43.5"><tspan id="SvgjsTspan1357" style="">timestamp</tspan></tspan><tspan id="SvgjsTspan1358" dy="16.25" x="43.5"><tspan id="SvgjsTspan1359" style="">tokens</tspan></tspan></text></g></g><g id="SvgjsG1360" transform="translate(215,316.0000000000001)"><path id="SvgjsPath1361" d="M 0 4Q 0 0 4 0L 64 0Q 68 0 68 4L 68 41Q 68 45 64 45L 4 45Q 0 45 0 41Z" stroke="rgba(33,41,48,1)" stroke-width="1.5" fill-opacity="1" fill="#cae6ff"></path><g id="SvgjsG1362"><text id="SvgjsText1363" font-family="&quot;Microsoft YaHei&quot;, 微软雅黑, Arial" text-anchor="middle" font-size="13px" width="48px" fill="#323232" font-weight="400" align="middle" lineHeight="125%" anchor="middle" family="&quot;Microsoft YaHei&quot;, 微软雅黑, Arial" size="13px" weight="400" font-style="" opacity="1" y="3.375" transform="rotate(0)"><tspan id="SvgjsTspan1364" dy="16.25" x="34"><tspan id="SvgjsTspan1365" style="">text </tspan></tspan><tspan id="SvgjsTspan1366" dy="16.25" x="34"><tspan id="SvgjsTspan1367" style="">tokens</tspan></tspan></text></g></g><g id="SvgjsG1368" transform="matrix(-1.8369701987210297e-16,-1,1,-1.8369701987210297e-16,638.006846144499,425.15703325003227)"><path id="SvgjsPath1369" d="M 120 0Q 111 0 111 9L 111 216.997Q 111 225.997 98 225.997Q 111 225.997 111 234.997L 111 442.993Q 111 451.993 120 451.993" stroke="rgba(236,114,112,1)" stroke-width="1.5" fill="none"></path><path id="SvgjsPath1370" d="M 0 0L 120 0L 120 451.993L 0 451.993Z" stroke="none" fill="none"></path><g id="SvgjsG1371"><text id="SvgjsText1372" font-family="&quot;Microsoft YaHei&quot;, 微软雅黑, Arial" text-anchor="end" font-size="13px" width="93px" fill="#323232" font-weight="400" align="middle" lineHeight="125%" anchor="end" family="&quot;Microsoft YaHei&quot;, 微软雅黑, Arial" size="13px" weight="400" font-style="" opacity="1" y="215.3715" transform="rotate(0)"></text></g></g><g id="SvgjsG1373" transform="translate(773.6796875,318.5000000000001)"><path id="SvgjsPath1374" d="M 0 0L 181.547 0L 181.547 40L 0 40Z" stroke="none" fill="none"></path><g id="SvgjsG1375"><text id="SvgjsText1376" font-family="&quot;Microsoft YaHei&quot;, 微软雅黑, Arial" text-anchor="middle" font-size="13px" width="182px" fill="#323232" font-weight="400" align="middle" lineHeight="125%" anchor="middle" family="&quot;Microsoft YaHei&quot;, 微软雅黑, Arial" size="13px" weight="400" font-style="" opacity="1" y="9.375" transform="rotate(0)"><tspan id="SvgjsTspan1377" dy="16.25" x="91"><tspan id="SvgjsTspan1378" style="">Text-only transcription</tspan></tspan></text></g></g><g id="SvgjsG1379" transform="matrix(6.123233995736766e-17,1,-1,6.123233995736766e-17,1090,24.99999999999998)"><path id="SvgjsPath1380" d="M 120 0Q 111 0 111 9L 111 294.5Q 111 303.5 98 303.5Q 111 303.5 111 312.5L 111 598Q 111 607 120 607" stroke="rgba(236,114,112,1)" stroke-width="1.5" fill="none"></path><path id="SvgjsPath1381" d="M 0 0L 120 0L 120 607L 0 607Z" stroke="none" fill="none"></path><g id="SvgjsG1382"><text id="SvgjsText1383" font-family="&quot;Microsoft YaHei&quot;, 微软雅黑, Arial" text-anchor="end" font-size="13px" width="93px" fill="#323232" font-weight="400" align="middle" lineHeight="125%" anchor="end" family="&quot;Microsoft YaHei&quot;, 微软雅黑, Arial" size="13px" weight="400" font-style="" opacity="1" y="292.875" transform="rotate(0)"></text></g></g><g id="SvgjsG1384" transform="translate(651.04296875,88.50000000000011)"><path id="SvgjsPath1385" d="M 0 0L 269.82 0L 269.82 40L 0 40Z" stroke="none" fill="none"></path><g id="SvgjsG1386"><text id="SvgjsText1387" font-family="&quot;Microsoft YaHei&quot;, 微软雅黑, Arial" text-anchor="middle" font-size="13px" width="270px" fill="#323232" font-weight="400" align="middle" lineHeight="125%" anchor="middle" family="&quot;Microsoft YaHei&quot;, 微软雅黑, Arial" size="13px" weight="400" font-style="" opacity="1" y="9.375" transform="rotate(0)"><tspan id="SvgjsTspan1388" dy="16.25" x="135"><tspan id="SvgjsTspan1389" style="">Tracription aligned in utterance level</tspan></tspan></text></g></g><g id="SvgjsG1390"></g></svg>